<svg width="370" height="248" xmlns="http://www.w3.org/2000/svg">

 <g>
  <title>Layer 1</title>
  <g transform="rotate(44.7069 170.145 124)">
   <g>
    <path fill="#EFC75E" d="m114.37269,179.29617c13.083,13.03 17.02,34.461 3.947,47.5c-13.083,13.03 -52.514,27.548 -65.596,14.518c-13.074,-13.03 1.505,-52.321 14.579,-65.351c13.081,-13.031 33.996,-9.706 47.07,3.333z"/>
    <path fill="#E2574C" d="m235.17769,150.32217c19.698,40.84 -28.37,135.901 -50.597,109.001c-9.013,-10.904 -8.418,-28.3 -31.949,-50.702c-0.035,0.14 8.567,1.523 18.639,-7.596c23.242,-17.905 63.907,-50.554 63.907,-50.703z"/>
    <path fill="#E2574C" d="m152.40369,58.85817c-44.148,-20.005 -146.402,27.749 -117.261,50.212c11.814,9.11 30.558,8.611 54.842,32.369c-0.149,0.035 -1.68,-8.611 8.103,-18.683c19.155,-23.259 54.15,-63.898 54.316,-63.898z"/>
    <path fill="#CF5349" d="m132.95969,54.32517l-1.908,-0.096c-9.687,11.831 -33.358,40.998 -47.788,59.453c-5.916,6.423 -7.517,12.26 -7.858,15.708c2.827,1.943 5.741,4.183 8.751,6.756c0.735,-3.483 2.669,-8.34 7.508,-13.599c18.421,-23.575 52.05,-64.791 52.208,-64.783c-3.3,-1.575 -7.011,-2.651 -10.913,-3.439z"/>
    <path fill="#CF5349" d="m235.44969,150.96917c-5.758,4.848 -42.249,34.767 -63.934,51.84c-7.167,6.633 -13.529,7.876 -16.705,7.998c3.115,3.133 5.811,6.169 8.103,9.101c2.853,0.044 9.722,-0.858 17.475,-8.025c18.149,-14.299 46.572,-37.497 58.762,-47.57c-0.656,-4.829 -1.864,-9.336 -3.701,-13.344z"/>
    <path fill="#D7B354" d="m83.41169,168.08617c1.82,8.156 7.412,17.878 16.119,26.568c8.663,8.646 18.351,14.211 26.498,16.067c1.383,-10.956 -3.15,-22.953 -11.656,-31.424c-8.462,-8.437 -20.188,-12.707 -30.961,-11.211z"/>
    <path fill="#EBEBEB" d="m308.52769,-14.61383c6.581,6.222 -3.107,98.596 -66.244,161.313c-39.09,38.836 -65.019,53.87 -71.223,59.252c-17.16,7.78 -28.545,11.962 -62.551,-21.833c-33.927,-33.708 -27.399,-43.054 -19.873,-59.2c5.583,-6.266 21.046,-32.299 60.145,-71.144c63.11,-62.709 152.859,-74.496 159.746,-68.388z"/>
    <path fill="#324D5B" d="m229.60369,64.17017c13.608,13.634 13.608,35.738 0,49.381c-13.616,13.634 -35.677,13.634 -49.294,0c-13.608,-13.643 -13.608,-35.747 0,-49.381c13.617,-13.643 35.678,-13.643 49.294,0z"/>
    <path fill="#CCD0D2" d="m217.39669,76.54317c6.861,6.817 6.861,17.869 0,24.686c-6.852,6.817 -17.983,6.817 -24.852,0c-6.852,-6.817 -6.852,-17.869 0,-24.686c6.877,-6.817 18,-6.817 24.852,0z"/>
   </g>
  </g>
 </g>
</svg>